<svg id="Capa_1" data-name="Capa 1" xmlns="http://www.w3.org/2000/svg" viewBox="0 0 500 460"><defs><style>.cls-1{fill:#fff;}</style></defs><path class="cls-1" d="M326.39,264.86l-14.84.12-2-29.45-18.35,29.41-21.27,0,34.33-54.08c.36-.59.47-1.23-.43-2.18l-5.62-6.56h27.93l3.19,32.68,16.29-25.92a1,1,0,0,0-.12-1.17l-6-5.55,18.74,0-.59-1.79-8-5.38-3.28-2.19,6.53-.74-3.91-8.39-7.81,12.69-22.44.07,35.15-55.8h48.77s4-.44,5.71,2.63c1.58,2.75-.45,6-.45,6s-13.26,21.57-16.14,25.92a8,8,0,0,1-7,3.35l-16.79-.08L373,189.78l.66-.07,1.85,5.33,4-2.75-3,5.23,2.68,9.06,16.36-19.46L422.2,184l-13.49,16.54L422,196.08l-20.74,13.43-14.85,18.08.85,2.93,9.61-6.72-3.82,7.07,46.85-38.3V112.71H0V318.14c0,4.32-.62,4.94,11.12,9.27l100.1,42.47L100.76,357.2l43.44-.69,21.53,18.41,6.84-21.68,3,28.19,15.9,14.33L354,262.81l-29.31,3.36Zm19.52-124.22c-1.54,2.5-9.22,14.5-9.22,14.5l-27.83.2-5.57,8.14,22.39,0c-1.07,1.75-7.89,12.35-7.89,12.35l-21.78,0s-3.9,5.89-4.58,7h28.12s-8.79,13.62-8.57,13.6c-4.86.09-48.11,0-48.11,0,2.46-3.85,28.36-45.53,29.41-47.06a1.55,1.55,0,0,0-.23-2.17c-1.61-1.88-3.64-4.33-5.45-6.57Zm-71.62,0c4.42.05,6.86,2,8.19,4.66s-.5,5.5-.5,5.5-15.91,25.83-18.82,29.72c-2.05,2.74-7.76,2.74-7.76,2.74l-25.83-.16-8,13.34H199.4L231.78,145l-2.3-4.33S270.77,140.59,274.29,140.64Zm-102.65,0,21.45,0L191,154.79l9.59-9.29a1.47,1.47,0,0,0,.46-1.66c-.44-.9-1.75-3.2-1.75-3.2h24.16s-32.07,33-35.39,38.62c-1.6,2.73-10.74,17.18-10.74,17.18H156.26l15.38-25a12.45,12.45,0,0,0,1.86-5.79c0-3.84,2.43-19.82,2.43-19.82Zm-67.27,6.66-6.14-6.66h33l-16,25h16.25l11-17a.85.85,0,0,0-.19-1l-6.69-6.89h31.63l-33.33,55.8h-22l11.15-17.95H107.25l-11.58,18H74.38L104.68,149A1.42,1.42,0,0,0,104.37,147.3ZM86.27,253.8l-6.42,9.6s-.92,1.58-4,1.58H31l33.45-53.41a1.56,1.56,0,0,0-.16-1.81l-5.76-7.64h51.6c8.74,0,4.79,5.75,4.79,5.75l-5.71,9.23s-1.19,2.22-5.72,2.19H82.88L65.31,247.4l17.39.07s2.72-.16,4.06,1.68S86.27,253.8,86.27,253.8ZM128.14,265l12.3-20.21H124.62L111.89,265,90.6,265,124,211.61a1.74,1.74,0,0,0-.2-2l-5.72-7.5h33l-17.58,28.12h16.26l12.09-19.17a1.05,1.05,0,0,0-.12-1.18l-6.25-7.76H187L150.11,265Zm70.74,0,12.74-20.21H197.56L184.82,265H160.65l33.7-54a1.66,1.66,0,0,0-.21-2l-4.49-6.88h71.18L221.29,265Zm34.27,0,34.11-54.36a1.67,1.67,0,0,0-.2-2l-5.35-6.51H296L256.8,265Z"/><path class="cls-1" d="M216.58,62.63h-6.25l-1,2.4h6.25c.19,0,.24-.14.38-.38l.68-1.64C216.77,62.73,216.77,62.63,216.58,62.63Z"/><path class="cls-1" d="M324.14,62.08,323.56,64h6.68l.91-1.54c.2-.27.15-.4-.14-.4Z"/><path class="cls-1" d="M278.31,62.63H271.2L267,72.58h7.11c.29,0,.43-.14.58-.48L278.55,63C278.7,62.73,278.6,62.63,278.31,62.63Z"/><path class="cls-1" d="M320.48,71.23,320,73.42h7c.24,0,.34-.08.34-.47l-.05-1.72Z"/><path class="cls-1" d="M437.17.46H2.77A2.76,2.76,0,0,0,0,3.23v99.83H439.93V3.23A2.76,2.76,0,0,0,437.17.46ZM46.39,69.37a4.82,4.82,0,1,1-5.68-5.68A4.81,4.81,0,0,1,46.39,69.37Zm40,11.77H62c-.72,0-.87-.29-.58-1L64.83,72a1.39,1.39,0,0,1,1.45-1H85.46c.91,0,1.49-.49,2-1.64l.1-.19a2.07,2.07,0,0,0,.19-.82c0-.43-.29-.62-.91-.62H74.69c-4.57,0-6.68-1.16-6.68-3.66a8.13,8.13,0,0,1,.72-3l3.65-8.6c2.5-5.87,4.76-7.21,12-7.21h22.31c.48,0,.72.14.72.43a1.89,1.89,0,0,1-.14.58l-3.41,8a1.39,1.39,0,0,1-1.45,1H84.59c-.91,0-1.49.48-1.92,1.54l-.1.2a2.4,2.4,0,0,0-.24.86c0,.48.29.67.92.67H95.84c4.19,0,6.25,1.16,6.25,3.71a8.81,8.81,0,0,1-.86,3.41l-3.8,8.89C95.22,79.75,92.86,81.14,86.37,81.14Zm65.3-18.51h-5c-.14,0-.19.1-.34.38l-3.84,9.09c-.15.34-.15.48,0,.48h5c.2,0,.34-.14.49-.48L148.4,71A1.52,1.52,0,0,1,149.89,70h8.22c.53,0,.82.14.82.52a1.19,1.19,0,0,1-.15.53l-1,2.36c-2.54,6-5,7.74-10.77,7.74H135.71c-3.51,0-5.29-1.25-5.29-3.8a10,10,0,0,1,1-3.94l5-11.59c2.6-6.1,4.81-7.79,10.87-7.79h11.29c3.47,0,5.2,1.25,5.2,3.8a10.34,10.34,0,0,1-1,4l-1,2.26a1.59,1.59,0,0,1-1.58,1.06H152c-.48,0-.73-.14-.73-.48a1.59,1.59,0,0,1,.15-.58l.43-1.06C152,62.73,151.86,62.63,151.67,62.63Zm28.89,18.51H165.71Q161,81.14,161,78a7.47,7.47,0,0,1,.72-2.89l8.51-19.95c.38-.87.67-1.11,1.54-1.11H180c.72,0,.91.34.62,1.11L173.35,72.2c-.14.29,0,.38.15.38h6.44c.24,0,.34-.09.48-.38l7.26-17.07c.38-.87.67-1.11,1.54-1.11h8.17c.77,0,1,.34.67,1.11l-8.51,19.95C187.58,79.7,185.47,81.14,180.56,81.14Zm39.33-1.63c.1,1.29-.24,1.63-1.68,1.63h-7.88c-.87,0-1.11-.24-1.16-1l-.77-7.64h-2.26L203,80a1.53,1.53,0,0,1-1.54,1.11h-8.22c-.53,0-.77-.15-.77-.53a1.64,1.64,0,0,1,.15-.58l10.57-24.9c.39-.91.63-1.11,1.54-1.11h18.7c3.71,0,5.53,1.06,5.53,3.27a7.82,7.82,0,0,1-.67,2.79l-2.88,6.83c-1.49,3.56-3,4.47-6.16,5.19Zm31.21-6.93c.48,0,.72.15.72.48a1.81,1.81,0,0,1-.14.63L249,80c-.38.92-.67,1.11-1.53,1.11H225.38c-.53,0-.77-.15-.77-.53a1.83,1.83,0,0,1,.14-.58l10.58-24.9c.38-.87.67-1.11,1.54-1.11H258.7c.72,0,.91.34.62,1.11l-2.74,6.39c-.38.87-.72,1.11-1.54,1.11h-12.5l-1.15,1.87h11.45c.77,0,1,.33.67,1.06l-1.59,4a1.41,1.41,0,0,1-1.59,1.06H239.55l-1.19,2Zm-124.85,0c.49,0,.73.15.73.48a1.64,1.64,0,0,1-.15.63L124.14,80c-.38.92-.67,1.11-1.54,1.11H100.53c-.53,0-.77-.15-.77-.53a1.64,1.64,0,0,1,.15-.58l10.58-24.9c.38-.87.67-1.11,1.53-1.11h21.83c.72,0,.92.34.63,1.11l-2.74,6.39c-.39.87-.73,1.11-1.54,1.11H117.7l-1.15,1.87H128c.77,0,1,.33.68,1.06l-1.6,4a1.4,1.4,0,0,1-1.58,1.06H114.71l-1.2,2ZM289.71,61.76,284.8,73.3c-2.45,5.77-5.33,7.84-11.1,7.84H254.37c-.67,0-1-.24-1-.72a1.67,1.67,0,0,1,.19-.72l10.29-24.23a2,2,0,0,1,2-1.45h19.52c3.51,0,5.29,1.35,5.29,3.9A10.48,10.48,0,0,1,289.71,61.76Zm53.08-1.82-1.16,2.79a4.35,4.35,0,0,1-1.1,1.68l-2.93,2.64.48,3.08a2.81,2.81,0,0,1-.29,1.59l-1.2,2.88c-2.21,5.29-4,6.54-9.47,6.54H307c-.53,0-.77-.15-.77-.53a1.83,1.83,0,0,1,.14-.58L317,55.13c.39-.87.67-1.11,1.54-1.11H338.7c3.27,0,4.86,1,4.86,3A8.12,8.12,0,0,1,342.79,59.94Zm35.15-4.23L361.3,71.28,357.6,80c-.39.92-.67,1.11-1.59,1.11H347.6c-.53,0-.77-.15-.77-.48A2.48,2.48,0,0,1,347,80l3.7-8.75-3.27-15.53c-.19-1,.15-1.73,1.64-1.73H357c.87,0,1.21.34,1.25,1l.48,6a8.71,8.71,0,0,1-.43,2.89,15.27,15.27,0,0,1,2-2.89l5.48-6a2.65,2.65,0,0,1,2.07-1h9.91c.72,0,1,.2,1,.53S378.42,55.27,377.94,55.71Zm23.6,13.66a4.83,4.83,0,1,1-5.68-5.68A4.81,4.81,0,0,1,401.54,69.37Z"/><polygon class="cls-1" points="439.93 211.98 477.16 173.67 439.93 211.98 439.93 211.98"/><polygon class="cls-1" points="268.45 393.57 266.4 394.32 268.45 393.57 268.45 393.57"/><polygon class="cls-1" points="212.75 220.19 206.79 230.27 220.52 230.38 227 220.47 212.75 220.19"/><path class="cls-1" d="M254.29,165.7l5.68-8.06a1.74,1.74,0,0,0-1.57-2.54l-11.35,0-7.37,11.33,12.9.1A2,2,0,0,0,254.29,165.7Z"/><path class="cls-1" d="M383.76,155.23c-2.71-.27-17.64-.12-17.64-.12l-5.27,10.13h21.09l3.46-7.46a1.89,1.89,0,0,0,.3-.83C385.75,156.33,385.53,155.4,383.76,155.23Z"/><polygon class="cls-1" points="378.04 197.52 378.1 197.46 378.04 197.52 378.04 197.52"/><polygon class="cls-1" points="500 155.42 479.71 172.3 392.25 245.09 396.56 258.07 373.53 260.67 191.51 412.16 184.39 405.13 174.87 395.72 173.4 401.82 171.78 408.51 171.25 410.71 171.25 410.72 171.24 400.9 171.24 398.37 171.23 367.67 171.23 367.67 171.1 368.59 167.53 389.95 142.43 368.48 113.39 367.55 125.13 381.11 154.25 414.73 193.06 459.54 285.54 397.12 300.57 386.98 282.64 393.6 268.45 398.83 266.4 399.59 260.75 401.67 439.93 217.24 477.16 178.93 500 155.42 500 155.42"/><polygon class="cls-1" points="364.08 254.59 373.17 247.16 372.28 244.47 364.08 254.59"/><polygon class="cls-1" points="353.73 236.89 365.19 223.29 363.26 217.45 348.17 241.46 353.73 236.89"/><polygon class="cls-1" points="387.12 239.14 383.24 242.06 391.67 229.49 385.77 234.82 383.24 227.08 398.25 208.82 412.95 200.9 413.53 200.59 389.31 211.58 405.33 200.21 415.79 187.64 397.07 189.71 378.18 212.44 374.47 201.07 371.6 202.79 377.84 194.01 377.67 194.18 373.63 198.15 371.77 192.63 354.23 194.7 359.96 198.49 368.4 223.8 356.25 238.27 339.75 250.38 363 236.2 347.15 248.95 339.22 258.42 334.33 262.21 356.25 259.8 373.29 238.96 378.52 254.28 375.82 257.56 392.69 255.49 387.12 239.14"/></svg>